<?xml version="1.0" standalone="no"?>
<!DOCTYPE svg PUBLIC "-//W3C//DTD SVG 20010904//EN"
 "http://www.w3.org/TR/2001/REC-SVG-20010904/DTD/svg10.dtd">
<svg version="1.0" xmlns="http://www.w3.org/2000/svg"
 width="253.000000pt" height="260.000000pt" viewBox="0 0 253.000000 260.000000"
 preserveAspectRatio="xMidYMid meet">

<g transform="translate(0.000000,260.000000) scale(0.100000,-0.100000)"
fill="#000000" stroke="none">
<path d="M1525 2506 c-32 -15 -1335 -1314 -1347 -1343 -12 -31 -9 -113 6 -141
8 -15 147 -159 308 -319 l294 -293 227 0 226 0 33 29 c76 67 1143 1141 1154
1163 20 34 17 108 -5 144 -24 39 -716 731 -756 755 -35 22 -97 24 -140 5z
m407 -491 c183 -185 334 -340 336 -344 2 -5 -124 -136 -279 -291 l-283 -281
-343 343 c-188 188 -340 345 -337 348 37 42 561 560 566 560 4 0 157 -151 340
-335z m-683 -689 l343 -343 -207 -207 -207 -206 -162 0 -161 0 -263 263 -263
264 288 286 c158 158 288 287 288 287 0 0 155 -155 344 -344z"/>
<path d="M697 239 c-47 -27 -51 -116 -7 -139 11 -6 340 -10 861 -10 l842 -1
24 22 c33 31 31 82 -3 114 l-27 25 -836 0 c-575 -1 -842 -4 -854 -11z"/>
</g>
</svg>
